<?xml version="1.0" encoding="utf-8"?>
<!-- Generator: Adobe Illustrator 27.9.0, SVG Export Plug-In . SVG Version: 6.00 Build 0)  -->
<svg version="1.1" id="圖層_1" xmlns="http://www.w3.org/2000/svg" xmlns:xlink="http://www.w3.org/1999/xlink" x="0px" y="0px"
	 viewBox="0 0 30 30" style="enable-background:new 0 0 30 30;" xml:space="preserve">
<style type="text/css">
	.st0{fill:#FFFFFF;}
</style>
<path class="st0" d="M27.3,9.9L12.5,24.7C12.3,24.9,12,25,11.7,25c-0.3,0-0.6-0.1-0.8-0.3l-8.1-8.1c-0.5-0.5-0.5-1.2,0-1.7L5.6,12
	c0.4-0.4,1.2-0.4,1.7,0l4.4,4.4L22.7,5.3C23,5.1,23.3,5,23.6,5c0.3,0,0.6,0.1,0.8,0.3l2.9,2.9C27.7,8.7,27.7,9.4,27.3,9.9L27.3,9.9z
	"/>
</svg>
