<?xml version="1.0" encoding="UTF-8"?>
<svg width="578px" height="78px" viewBox="0 0 578 78" version="1.1" xmlns="http://www.w3.org/2000/svg" xmlns:xlink="http://www.w3.org/1999/xlink">
    <title>桃圖logo_w</title>
    <defs>
        <polygon id="path-1" points="0 0.0949539314 6.19670863 0.0949539314 6.19670863 1.76688786 0 1.76688786"></polygon>
        <polygon id="path-3" points="0 0 6.19857118 0 6.19857118 35.6436578 0 35.6436578"></polygon>
        <polygon id="path-5" points="0 0 6.19652238 0 6.19652238 34.6228099 0 34.6228099"></polygon>
        <polygon id="path-7" points="0 77.9050461 578 77.9050461 578 0 0 0"></polygon>
    </defs>
    <g id="Page-1" stroke="none" stroke-width="1" fill="none" fill-rule="evenodd">
        <g id="2022_新建總館形象網站copy" transform="translate(-431.000000, -13138.000000)">
            <g id="群組" transform="translate(431.000000, 13138.000000)">
                <path d="M84.0692392,68.2685253 C86.1571594,68.2033609 88.2208664,68.1288872 90.2659479,68.0413806 L90.2659479,47.0640092 C88.2283166,47.2874302 86.162747,47.4978183 84.0692392,47.6933117 L84.0692392,68.2685253 Z" id="Fill-1" fill="#604C3F"></path>
                <path d="M126.104045,65.1067456 C128.199415,64.8386404 130.266848,64.5575023 132.300754,64.2596076 L132.300754,39.4896644 C130.283611,40.0295985 128.210591,40.5434668 126.104045,41.0424404 L126.104045,65.1067456 Z" id="Fill-3" fill="#604C3F"></path>
                <path d="M63.0518363,68.5222944 C64.2326939,68.5297417 65.432177,68.5334654 66.6521482,68.5334654 C67.5033342,68.5334654 68.3787334,68.5278799 69.2485449,68.5241562 L69.2485449,48.8221464 C67.2071885,48.9413042 65.1378939,49.0437055 63.0518363,49.1367976 L63.0518363,68.5222944 Z" id="Fill-5" fill="#604C3F"></path>
                <path d="M133.109474,64.1402635 C135.208569,63.8274741 137.276001,63.4997899 139.306182,63.1553492 L139.306182,37.4731035 C137.285314,38.0930969 135.232782,38.7000573 133.109474,39.2772282 L133.109474,64.1402635 Z" id="Fill-7" fill="#604C3F"></path>
                <path d="M140.114902,63.0140354 C142.217723,62.6491144 144.285155,62.2692987 146.313473,61.8690027 L146.313473,35.1720533 C144.307505,35.881415 142.232623,36.5609873 140.114902,37.2219411 L140.114902,63.0140354 Z" id="Fill-9" fill="#604C3F"></path>
                <path d="M49.0400481,68.2731799 C51.0124901,68.330897 53.0817847,68.3830286 55.2386193,68.4239891 L55.2386193,49.431341 C53.1357987,49.4927818 51.0758168,49.537466 49.0400481,49.572841 L49.0400481,68.2731799 Z" id="Fill-11" fill="#604C3F"></path>
                <path d="M28.0235764,67.251215 C29.5415558,67.3592018 31.6313386,67.4988399 34.2202851,67.6440636 L34.2202851,49.6512245 C32.0895262,49.6363298 30.018369,49.6084022 28.0235764,49.574889 L28.0235764,67.251215 Z" id="Fill-13" fill="#604C3F"></path>
                <path d="M77.0638108,68.4368358 C79.0995795,68.399599 81.1595614,68.3567766 83.2605194,68.2953358 L83.2605194,47.7722538 C81.2210256,47.958438 79.155456,48.1315892 77.0638108,48.2898458 L77.0638108,68.4368358 Z" id="Fill-15" fill="#604C3F"></path>
                <path d="M70.057451,68.5213634 C72.0801819,68.5101924 74.1494765,68.4859884 76.2560222,68.4506135 L76.2560222,48.355755 C74.2146658,48.5065642 72.1472337,48.6443405 70.057451,48.7690839 L70.057451,68.5213634 Z" id="Fill-17" fill="#604C3F"></path>
                <path d="M42.0346196,68.0249964 C43.9642229,68.1050556 46.0372427,68.1813911 48.2313282,68.2484174 L48.2313282,49.5871772 C46.1266451,49.6225522 44.0554879,49.6467561 42.0346196,49.6579271 L42.0346196,68.0249964 Z" id="Fill-19" fill="#604C3F"></path>
                <path d="M35.0290049,49.6573686 L35.0290049,67.6893063 C36.8729308,67.7898458 38.9459506,67.8922471 41.2257135,67.9909247 L41.2257135,49.6610923 C40.355902,49.664816 39.4805028,49.6704015 38.6274543,49.6704015 C37.4056205,49.6704015 36.2117251,49.664816 35.0290049,49.6573686" id="Fill-21" fill="#604C3F"></path>
                <path d="M56.0464078,68.4385115 C58.0412004,68.4738865 60.1104951,68.4999523 62.2431165,68.5167088 L62.2431165,49.1777582 C60.2017601,49.2671266 58.1306029,49.3378765 56.0464078,49.4011792 L56.0464078,68.4385115 Z" id="Fill-23" fill="#604C3F"></path>
                <path d="M98.0812137,65.0430706 C100.13747,64.1586958 102.20304,63.2221893 104.277922,62.2242421 L104.277922,45.2349358 C102.244016,45.5440015 100.178447,45.8381725 98.0812137,46.115587 L98.0812137,65.0430706 Z" id="Fill-25" fill="#604C3F"></path>
                <path d="M147.121448,61.7066501 C149.227994,61.284012 151.293563,60.8427555 153.318157,60.3828806 L153.318157,33.1850957 C151.278663,33.641247 149.213093,34.0694706 147.121448,34.4604573 L147.121448,61.7066501 Z" id="Fill-27" fill="#604C3F"></path>
                <path d="M119.098617,54.0675132 C121.167911,52.7679477 123.235343,51.3939084 125.295325,49.950981 L125.295325,41.2319759 C123.268869,41.7048838 121.205162,42.1591732 119.098617,42.5948441 L119.098617,54.0675132 Z" id="Fill-29" fill="#604C3F"></path>
                <path d="M168.138665,29.0370984 L168.138665,56.4396859 C170.260111,55.7824557 172.329405,55.1028835 174.335373,54.3935217 L174.335373,26.676283 C172.327543,27.5159736 170.261973,28.3035327 168.138665,29.0370984" id="Fill-31" fill="#604C3F"></path>
                <path d="M161.133236,58.4594118 C163.250957,57.8934119 165.312802,57.3032081 167.329945,56.6888003 L167.329945,29.3029694 C165.307214,29.9862653 163.243507,30.6286008 161.133236,31.2225283 L161.133236,58.4594118 Z" id="Fill-33" fill="#604C3F"></path>
                <path d="M91.0748539,67.8740011 C93.1255231,67.097613 95.1910926,66.2728171 97.2734251,65.3921659 L97.2734251,46.2226429 C95.2357939,46.4870244 93.1702243,46.7365112 91.0748539,46.9711033 L91.0748539,67.8740011 Z" id="Fill-35" fill="#604C3F"></path>
                <path d="M105.086642,61.8330692 C107.146624,60.8276746 109.214056,59.7627011 111.285213,58.634425 L111.285213,44.0915787 C109.25317,44.4490524 107.183875,44.7879076 105.086642,45.1137299 L105.086642,61.8330692 Z" id="Fill-37" fill="#604C3F"></path>
                <path d="M112.093002,58.1929823 C114.158571,57.0498114 116.226004,55.8414761 118.289711,54.5642526 L118.289711,42.7657612 C116.257667,43.1790901 114.197685,43.5775242 112.093002,43.9554781 L112.093002,58.1929823 Z" id="Fill-39" fill="#604C3F"></path>
                <path d="M154.126876,60.1976273 C156.237147,59.7098248 158.304579,59.1996801 160.325448,58.6690552 L160.325448,31.439619 C158.291542,31.9981716 156.227835,32.5250728 154.126876,33.0072898 L154.126876,60.1976273 Z" id="Fill-41" fill="#604C3F"></path>
                <path d="M112.093002,77.9050461 L118.289711,77.9050461 L118.289711,66.0134625 C116.252079,66.2294362 114.18651,66.4286533 112.093002,66.6185611 L112.093002,77.9050461 Z" id="Fill-43" fill="#604C3F"></path>
                <path d="M98.0812137,77.9050461 L104.277922,77.9050461 L104.277922,67.2515873 C102.238428,67.396811 100.169134,67.5252781 98.0812137,67.6481596 L98.0812137,77.9050461 Z" id="Fill-45" fill="#604C3F"></path>
                <path d="M91.0748539,77.9050461 L97.2734251,77.9050461 L97.2734251,67.6928438 C95.2283437,67.808278 93.1664992,67.9162649 91.0748539,68.0074951 L91.0748539,77.9050461 Z" id="Fill-47" fill="#604C3F"></path>
                <path d="M77.0638108,77.9050461 L83.2605194,77.9050461 L83.2605194,70.6196591 C81.1688741,71.3066788 79.0977169,71.9620471 77.0638108,72.5596983 L77.0638108,77.9050461 Z" id="Fill-49" fill="#604C3F"></path>
                <path d="M84.0692392,77.9050461 L90.2659479,77.9050461 L90.2659479,68.173199 C88.1780277,68.9533107 86.1143207,69.6701198 84.0692392,70.3515539 L84.0692392,77.9050461 Z" id="Fill-51" fill="#604C3F"></path>
                <path d="M70.057451,77.9050461 L76.2560222,77.9050461 L76.2560222,72.7961522 C74.147614,73.4068363 72.0876321,73.9653888 70.057451,74.4960137 L70.057451,77.9050461 Z" id="Fill-53" fill="#604C3F"></path>
                <path d="M119.098617,77.9050461 L125.295325,77.9050461 L125.295325,65.2091469 C123.259557,65.4623574 121.190262,65.6988113 119.098617,65.9240941 L119.098617,77.9050461 Z" id="Fill-55" fill="#604C3F"></path>
                <path d="M63.0518363,77.9050461 L69.2485449,77.9050461 L69.2485449,74.7082637 C67.1364116,75.2519215 65.0652544,75.763928 63.0518363,76.2368358 L63.0518363,77.9050461 Z" id="Fill-57" fill="#604C3F"></path>
                <g transform="translate(56.046408, 76.138158)">
                    <mask id="mask-2" fill="white">
                        <use xlink:href="#path-1"></use>
                    </mask>
                    <g id="Clip-60"></g>
                    <path d="M0,1.76688786 L6.19670863,1.76688786 L6.19670863,0.284861794 C4.07153744,0.778249869 1.99479259,1.24371032 0,1.67751945 L0,1.76688786 Z" id="Fill-59" fill="#604C3F" mask="url(#mask-2)"></path>
                </g>
                <path d="M105.086642,77.9050461 L109.174943,77.9050461 L111.285213,77.9050461 L111.285213,66.6893111 C109.241994,66.8680479 107.18015,67.0374755 105.086642,67.1901466 L105.086642,77.9050461 Z" id="Fill-61" fill="#604C3F"></path>
                <path d="M98.0812137,38.6609586 C100.135608,38.644202 102.201177,38.6125507 104.277922,38.5604192 L104.277922,11.0070225 C102.221666,11.3272593 100.154233,11.625154 98.0812137,11.9044302 L98.0812137,38.6609586 Z" id="Fill-63" fill="#604C3F"></path>
                <path d="M133.109474,36.5891011 C135.188081,36.3396143 137.255513,36.0659235 139.306182,35.7643052 L139.306182,2.67565284 C137.287176,3.37942904 135.216019,4.04410655 133.109474,4.67340908 L133.109474,36.5891011 Z" id="Fill-65" fill="#604C3F"></path>
                <path d="M126.104045,37.3291832 C128.177065,37.1374135 130.244497,36.9251635 132.300754,36.6849859 L132.300754,4.91637943 C130.270573,5.51403065 128.203141,6.08003055 126.104045,6.61437915 L126.104045,37.3291832 Z" id="Fill-67" fill="#604C3F"></path>
                <path d="M91.0748539,38.6600277 C93.1236605,38.6767843 95.1892301,38.6805079 97.2734251,38.6674751 L97.2734251,12.0096243 C95.2097181,12.283315 93.1441486,12.5346637 91.0748539,12.7673939 L91.0748539,38.6600277 Z" id="Fill-69" fill="#604C3F"></path>
                <g transform="translate(140.114902, 0.000000)">
                    <mask id="mask-4" fill="white">
                        <use xlink:href="#path-3"></use>
                    </mask>
                    <g id="Clip-72"></g>
                    <path d="M0,35.6436578 C2.08419506,35.3290065 4.15162715,34.9845658 6.19857118,34.6121975 L6.19857118,-0.00130328925 C4.19074073,0.838387359 2.12144609,1.6333938 0,2.38743973 L0,35.6436578 Z" id="Fill-71" fill="#604C3F" mask="url(#mask-4)"></path>
                </g>
                <path d="M119.098617,37.889039 C121.166049,37.747539 123.233481,37.5892825 125.295325,37.4049601 L125.295325,6.81676135 C123.255831,7.326906 121.190262,7.80912302 119.098617,8.26341242 L119.098617,37.889039 Z" id="Fill-73" fill="#604C3F"></path>
                <path d="M112.093002,38.287287 C114.156709,38.192333 116.222278,38.0787607 118.289711,37.9447081 L118.289711,8.44196305 C116.244629,8.87949587 114.177197,9.28723922 112.093002,9.67450232 L112.093002,38.287287 Z" id="Fill-75" fill="#604C3F"></path>
                <path d="M84.0692392,38.5455244 C86.1105956,38.5939323 88.1780277,38.6311691 90.2659479,38.6516494 L90.2659479,12.8595551 C88.2003783,13.0885616 86.1329462,13.2989497 84.0692392,13.4925813 L84.0692392,38.5455244 Z" id="Fill-77" fill="#604C3F"></path>
                <path d="M105.086642,38.5408698 C107.144761,38.4868764 109.212194,38.4161264 111.285213,38.3248962 L111.285213,9.82196019 C109.232682,10.1961904 107.16525,10.5480785 105.086642,10.8776245 L105.086642,38.5408698 Z" id="Fill-79" fill="#604C3F"></path>
                <g transform="translate(0.000000, 14.157445)">
                    <mask id="mask-6" fill="white">
                        <use xlink:href="#path-5"></use>
                    </mask>
                    <g id="Clip-82"></g>
                    <path d="M-0.000186255144,34.2299613 C1.51779317,34.33981 3.60757588,34.4775863 6.19652238,34.6228099 L6.19652238,0.402157827 C3.33750592,0.238315749 1.22164749,0.0912302478 -0.000186255144,0 L-0.000186255144,34.2299613 Z" id="Fill-81" fill="#604C3F" mask="url(#mask-6)"></path>
                </g>
                <path d="M7.00617349,48.8256839 C8.84823686,48.9262233 10.9268443,49.0286246 13.2028821,49.1273022 L13.2028821,14.9122356 C10.8914558,14.8098343 8.81471093,14.7055712 7.00617349,14.6050317 L7.00617349,48.8256839 Z" id="Fill-83" fill="#604C3F"></path>
                <path d="M56.0464078,37.1037141 C58.0393379,37.258247 60.1086325,37.4053325 62.2431165,37.5468325 L62.2431165,14.9682771 C60.1551963,15.0595073 58.0877642,15.1377047 56.0464078,15.2010073 L56.0464078,37.1037141 Z" id="Fill-85" fill="#604C3F"></path>
                <path d="M49.0400481,36.5228195 C51.0069024,36.6978326 53.076197,36.8709839 55.2386193,37.0404115 L55.2386193,15.2270731 C53.1395238,15.2903757 51.0758168,15.3369218 49.0400481,15.3741586 L49.0400481,36.5228195 Z" id="Fill-87" fill="#604C3F"></path>
                <path d="M42.0346196,35.8627966 C43.9549101,36.0545663 46.0242048,36.2519215 48.2313282,36.4492767 L48.2313282,15.3881224 C46.1285077,15.4234974 44.0573505,15.4477013 42.0346196,15.4588724 L42.0346196,35.8627966 Z" id="Fill-89" fill="#604C3F"></path>
                <path d="M35.0290049,15.4551487 L35.0290049,35.1348164 C36.8375423,35.3303098 38.9142872,35.5500072 41.2257135,35.7827374 L41.2257135,15.4607342 C39.1079925,15.4700434 37.0386979,15.4681816 35.0290049,15.4551487" id="Fill-91" fill="#604C3F"></path>
                <path d="M21.0172167,49.4091851 C22.9915212,49.4669022 25.0570907,49.5190338 27.2157879,49.5599943 L27.2157879,15.352375 C25.0533656,15.3114145 22.984071,15.2574211 21.0172167,15.1978422 L21.0172167,49.4091851 Z" id="Fill-93" fill="#604C3F"></path>
                <path d="M28.0235764,34.3898935 C29.2454102,34.4978804 31.3631311,34.7361961 34.2202851,35.0471237 L34.2202851,15.449377 C32.0858011,15.4326204 30.0165065,15.4046928 28.0235764,15.3693178 L28.0235764,34.3898935 Z" id="Fill-95" fill="#604C3F"></path>
                <path d="M77.0638108,38.3273166 C79.0977169,38.4055139 81.165149,38.4725402 83.2605194,38.5246718 L83.2605194,13.5685444 C81.1893622,13.7584523 79.1219301,13.9297417 77.0638108,14.0861364 L77.0638108,38.3273166 Z" id="Fill-97" fill="#604C3F"></path>
                <path d="M14.0117882,49.1619325 C15.9413915,49.2419917 18.0144113,49.3164654 20.2084968,49.3853535 L20.2084968,15.1740106 C18.0050985,15.1051225 15.9283536,15.0287869 14.0117882,14.9468659 L14.0117882,49.1619325 Z" id="Fill-99" fill="#604C3F"></path>
                <path d="M70.057451,38.0100587 C72.0820444,38.1161837 74.1494765,38.2111376 76.2560222,38.2949205 L76.2560222,14.1468325 C74.1774148,14.3013654 72.1118452,14.4410035 70.057451,14.563885 L70.057451,38.0100587 Z" id="Fill-101" fill="#604C3F"></path>
                <path d="M63.0518363,37.6010121 C65.0633918,37.731341 67.1308239,37.8542226 69.2485449,37.9677949 L69.2485449,14.6128515 C67.1662124,14.735733 65.1006429,14.8399962 63.0518363,14.9330883 L63.0518363,37.6010121 Z" id="Fill-103" fill="#604C3F"></path>
                <polygon id="Fill-105" fill="#604C3F" points="211.269396 62.3329737 215.624041 62.3329737 215.624041 76.5462739 217.371114 76.5462739 217.371114 62.3329737 221.74811 62.3329737 221.74811 60.4320332 211.269396 60.4320332"></polygon>
                <path d="M230.138532,69.9285435 L231.609948,65.2013272 C231.920994,64.1847615 232.161263,63.1570249 232.332618,62.1255645 C232.531911,62.9820117 232.842957,64.0953931 233.267618,65.4657087 L234.640319,69.9285435 L230.138532,69.9285435 Z M231.44418,60.4312885 L226.344515,76.5455292 L228.190303,76.5455292 L229.62633,71.6656419 L235.187909,71.6656419 L236.726376,76.5455292 L238.728619,76.5455292 L233.314182,60.4312885 L231.44418,60.4312885 Z" id="Fill-107" fill="#604C3F"></path>
                <path d="M254.788283,73.3349692 C253.920334,74.4427651 252.843779,74.9975939 251.562344,74.9975939 C250.306984,74.9975939 249.241605,74.4483506 248.366205,73.3517258 C247.490806,72.255101 247.053107,70.713496 247.053107,68.7250489 C247.053107,66.4219506 247.479631,64.7202272 248.334542,63.6198787 C249.187591,62.5195302 250.275321,61.9702869 251.594007,61.9702869 C252.415392,61.9702869 253.171588,62.2216356 253.864457,62.7243328 C254.557326,63.2270301 255.076978,63.8954313 255.419688,64.7313983 C255.868563,65.8242994 256.092069,67.0642861 256.092069,68.4494963 C256.092069,70.5999236 255.658094,72.2271733 254.788283,73.3349692 M254.77152,61.13432 C253.812306,60.475228 252.748789,60.145682 251.582832,60.145682 C249.779882,60.145682 248.273078,60.8848332 247.064282,62.3594118 C245.853623,63.8377142 245.248294,65.9490428 245.248294,68.6971213 C245.248294,70.8736144 245.786572,72.7317325 246.866851,74.2696138 C248.053297,75.9713372 249.621565,76.8221989 251.571656,76.8221989 C253.50871,76.8221989 255.073253,75.9936793 256.267149,74.3366401 C257.353016,72.8341338 257.895018,70.8885091 257.895018,68.4997661 C257.895018,66.7626677 257.615636,65.2676087 257.053145,64.0090037 C256.492517,62.7522605 255.732596,61.7934119 254.77152,61.13432" id="Fill-109" fill="#604C3F"></path>
                <path d="M271.901405,65.1739581 C271.327739,66.2296224 270.847201,67.1810235 270.457928,68.0244379 C270.070517,67.1661288 269.617917,66.25755 269.105716,65.2949778 L266.509319,60.431847 L264.372972,60.431847 L269.463325,69.7205757 L269.463325,76.5460877 L271.212261,76.5460877 L271.212261,69.7205757 L276.490732,60.431847 L274.469864,60.431847 L271.901405,65.1739581 Z" id="Fill-111" fill="#604C3F"></path>
                <path d="M292.326703,69.7313744 C292.326703,71.7682293 292.04732,73.1385449 291.48483,73.8423211 C290.924202,74.5460973 290.020864,74.8979854 288.774818,74.8979854 C288.033522,74.8979854 287.40398,74.7266959 286.888053,74.3859789 C286.372126,74.0452619 285.999616,73.5500119 285.772385,72.8965055 C285.545153,72.2448608 285.431538,71.1891965 285.431538,69.7313744 L285.431538,60.4314747 L283.682602,60.4314747 L283.682602,69.7425455 C283.682602,72.3807753 284.116576,74.220275 284.984525,75.2610445 C285.852474,76.2999523 287.158123,76.821268 288.901471,76.821268 C290.138205,76.821268 291.158883,76.5326825 291.95978,75.9536497 C292.760678,75.3746169 293.315718,74.5833341 293.619314,73.5835251 C293.92291,72.583716 294.073776,71.3027689 294.073776,69.7425455 L294.073776,60.4314747 L292.326703,60.4314747 L292.326703,69.7313744 Z" id="Fill-113" fill="#604C3F"></path>
                <path d="M304.993543,69.9285435 L306.464959,65.2013272 C306.776005,64.1847615 307.018136,63.1570249 307.187629,62.1255645 C307.386922,62.9820117 307.697968,64.0953931 308.122629,65.4657087 L309.49533,69.9285435 L304.993543,69.9285435 Z M306.299191,60.4312885 L301.199526,76.5455292 L303.045314,76.5455292 L304.483204,71.6656419 L310.04292,71.6656419 L311.581387,76.5455292 L313.58363,76.5455292 L308.169193,60.4312885 L306.299191,60.4312885 Z" id="Fill-115" fill="#604C3F"></path>
                <polygon id="Fill-117" fill="#604C3F" points="329.286801 73.1085692 322.337622 60.4312885 320.543985 60.4312885 320.543985 76.5455292 322.225869 76.5455292 322.225869 63.8663866 329.165735 76.5455292 330.95751 76.5455292 330.95751 60.4312885 329.286801 60.4312885"></polygon>
                <path d="M360.097127,67.3621807 C359.597963,67.8499833 358.810104,68.0938846 357.733549,68.0938846 L354.313905,68.0938846 L354.313905,62.3333461 L357.700024,62.3333461 C358.608949,62.3333461 359.238491,62.4171289 359.586788,62.5865565 C359.935085,62.7541223 360.231231,63.0650499 360.477088,63.5212011 C360.721082,63.9754905 360.84401,64.5210102 360.84401,65.1577601 C360.84401,66.1408125 360.596291,66.8743782 360.097127,67.3621807 M360.139966,60.7396095 C359.584926,60.5348069 358.718839,60.4305438 357.545432,60.4305438 L352.564969,60.4305438 L352.564969,76.5466463 L354.313905,76.5466463 L354.313905,69.994825 L357.700024,69.994825 C359.517874,69.994825 360.797447,69.536812 361.536879,68.6207858 C362.278175,67.7047596 362.648823,66.5206283 362.648823,65.0702535 C362.648823,63.9717668 362.421591,63.0445696 361.967129,62.2886619 C361.512666,61.5346159 360.903612,61.0170239 360.139966,60.7396095" id="Fill-119" fill="#604C3F"></path>
                <path d="M379.154567,69.7313744 C379.154567,71.7682293 378.875185,73.1385449 378.312694,73.8423211 C377.752066,74.5460973 376.848729,74.8979854 375.602682,74.8979854 C374.861386,74.8979854 374.233706,74.7266959 373.71778,74.3859789 C373.19999,74.0452619 372.82748,73.5500119 372.600249,72.8965055 C372.373017,72.2448608 372.259402,71.1891965 372.259402,69.7313744 L372.259402,60.4314747 L370.510466,60.4314747 L370.510466,69.7425455 C370.510466,72.3807753 370.944441,74.220275 371.81239,75.2610445 C372.680338,76.2999523 373.985987,76.821268 375.729335,76.821268 C376.966069,76.821268 377.986748,76.5326825 378.787645,75.9536497 C379.590404,75.3746169 380.143582,74.5833341 380.447178,73.5835251 C380.750774,72.583716 380.901641,71.3027689 380.901641,69.7425455 L380.901641,60.4314747 L379.154567,60.4314747 L379.154567,69.7313744 Z" id="Fill-121" fill="#604C3F"></path>
                <path d="M397.204367,73.5068172 C396.94361,73.9424882 396.563649,74.2571394 396.064486,74.4470473 C395.719914,74.5792381 395.183499,74.6444025 394.457104,74.6444025 L391.16225,74.6444025 L391.16225,69.1035614 L394.224285,69.1035614 C395.129485,69.1035614 395.79069,69.202239 396.21349,69.3958705 C396.636289,69.5895021 396.971548,69.8985678 397.22113,70.3193441 C397.470712,70.7401203 397.595503,71.2558505 397.595503,71.8646727 C397.595503,72.5237647 397.465124,73.0711462 397.204367,73.5068172 L397.204367,73.5068172 Z M391.16225,62.3339046 L393.818248,62.3339046 C394.781188,62.3339046 395.446118,62.4065164 395.818629,62.5536019 C396.189276,62.6988256 396.485422,62.965069 396.708928,63.3486084 C396.934297,63.7340096 397.04605,64.2162267 397.04605,64.7952595 C397.04605,65.4189765 396.923122,65.9105027 396.677265,66.2735618 C396.431408,66.636621 396.079386,66.895417 395.624923,67.048088 C395.30829,67.1504893 394.777462,67.2026209 394.026854,67.2026209 L391.16225,67.2026209 L391.16225,62.3339046 Z M396.924984,67.965976 C397.511688,67.6085024 397.966151,67.1318709 398.288372,66.5379434 C398.610593,65.9458777 398.772635,65.2793383 398.772635,64.5401871 C398.772635,63.741457 398.58638,63.0134769 398.212007,62.3543849 C397.835772,61.6952929 397.357096,61.2093522 396.76853,60.8984246 C396.181826,60.587497 395.384654,60.4311023 394.378876,60.4311023 L389.413314,60.4311023 L389.413314,76.545343 L394.449653,76.545343 C395.615611,76.545343 396.533848,76.3796391 397.200642,76.0463694 C397.867435,75.7130997 398.400125,75.1768893 398.798711,74.4395999 C399.19916,73.7023106 399.400315,72.8477252 399.400315,71.8721201 C399.400315,70.8890676 399.178672,70.0624099 398.737247,69.3921468 C398.295822,68.720022 397.690493,68.2452523 396.924984,67.965976 L396.924984,67.965976 Z" id="Fill-123" fill="#604C3F"></path>
                <polygon id="Fill-125" fill="#604C3F" points="409.065467 60.4312885 407.318394 60.4312885 407.318394 76.5455292 415.576947 76.5455292 415.576947 74.6445887 409.065467 74.6445887"></polygon>
                <mask id="mask-8" fill="white">
                    <use xlink:href="#path-7"></use>
                </mask>
                <g id="Clip-128"></g>
                <polygon id="Fill-127" fill="#604C3F" mask="url(#mask-8)" points="423.657813 76.5459016 425.404886 76.5459016 425.404886 60.4316609 423.657813 60.4316609"></polygon>
                <path d="M442.083848,73.9795388 C441.390979,74.6572492 440.567731,74.9961045 439.614104,74.9961045 C438.323356,74.9961045 437.28964,74.4449993 436.512956,73.3409271 C435.736272,72.2368549 435.348862,70.5816776 435.348862,68.3735332 C435.348862,66.9138492 435.540704,65.7073758 435.926253,64.7541128 C436.311801,63.8008498 436.827728,63.0989354 437.47217,62.6483697 C438.120338,62.1959421 438.882122,61.9706593 439.763109,61.9706593 C441.532532,61.9706593 442.711528,63.0877644 443.298231,65.3238363 L445.013641,64.8285864 C444.646718,63.292567 444.004138,62.1289158 443.087763,61.3357712 C442.169525,60.5426266 441.074345,60.1460543 439.796635,60.1460543 C438.630677,60.1460543 437.572748,60.4588437 436.626572,61.0862844 C435.680396,61.7137251 434.929788,62.6409223 434.374747,63.8678761 C433.82157,65.0966917 433.545912,66.599198 433.545912,68.3735332 C433.545912,70.1702105 433.82157,71.7285721 434.374747,73.0486179 C434.927925,74.3686638 435.63942,75.3275123 436.507369,75.9233017 C437.37718,76.5228147 438.423934,76.8207094 439.64763,76.8207094 C441.040819,76.8207094 442.223539,76.3757292 443.193928,75.4857688 C444.16618,74.5958085 444.846011,73.2441113 445.233422,71.4344011 L443.475174,70.8963288 C443.240492,72.2740918 442.776717,73.3018284 442.083848,73.9795388" id="Fill-129" fill="#604C3F" mask="url(#mask-8)"></path>
                <polygon id="Fill-130" fill="#604C3F" mask="url(#mask-8)" points="467.708458 60.4312885 465.961385 60.4312885 465.961385 76.5455292 474.219938 76.5455292 474.219938 74.6445887 467.708458 74.6445887"></polygon>
                <polygon id="Fill-131" fill="#604C3F" mask="url(#mask-8)" points="482.302107 76.5459016 484.051043 76.5459016 484.051043 60.4316609 482.302107 60.4316609"></polygon>
                <path d="M500.462356,73.5068172 C500.201599,73.9424882 499.821638,74.2571394 499.322475,74.4470473 C498.977903,74.5792381 498.441488,74.6444025 497.71323,74.6444025 L494.420239,74.6444025 L494.420239,69.1035614 L497.482274,69.1035614 C498.385611,69.1035614 499.04868,69.202239 499.471479,69.3958705 C499.892415,69.5895021 500.229537,69.8985678 500.479119,70.3193441 C500.728701,70.7401203 500.853492,71.2558505 500.853492,71.8646727 C500.853492,72.5237647 500.723113,73.0711462 500.462356,73.5068172 L500.462356,73.5068172 Z M494.420239,62.3339046 L497.076238,62.3339046 C498.037314,62.3339046 498.704108,62.4065164 499.074755,62.5536019 C499.445403,62.6988256 499.743411,62.965069 499.966917,63.3486084 C500.190424,63.7340096 500.304039,64.2162267 500.304039,64.7952595 C500.304039,65.4189765 500.181111,65.9105027 499.935254,66.2735618 C499.687535,66.636621 499.337375,66.895417 498.882913,67.048088 C498.566279,67.1504893 498.033589,67.2026209 497.284843,67.2026209 L494.420239,67.2026209 L494.420239,62.3339046 Z M500.182973,67.965976 C500.769677,67.6085024 501.22414,67.1318709 501.546361,66.5379434 C501.868582,65.9458777 502.030624,65.2793383 502.030624,64.5401871 C502.030624,63.741457 501.842507,63.0134769 501.469996,62.3543849 C501.093761,61.6952929 500.613223,61.2093522 500.026519,60.8984246 C499.439815,60.587497 498.642643,60.4311023 497.636866,60.4311023 L492.671303,60.4311023 L492.671303,76.545343 L497.707643,76.545343 C498.8736,76.545343 499.789975,76.3796391 500.458631,76.0463694 C501.125424,75.7130997 501.658114,75.1768893 502.0567,74.4395999 C502.457149,73.7023106 502.656442,72.8477252 502.656442,71.8721201 C502.656442,70.8890676 502.436661,70.0624099 501.995236,69.3921468 C501.551949,68.720022 500.948482,68.2452523 500.182973,67.965976 L500.182973,67.965976 Z" id="Fill-132" fill="#604C3F" mask="url(#mask-8)"></path>
                <path d="M516.183035,67.5431518 L512.420681,67.5431518 L512.420681,62.2126987 L516.602109,62.2126987 C517.538973,62.2126987 518.246742,62.4454289 518.723555,62.9108894 C519.200369,63.3763498 519.438775,64.0149616 519.438775,64.8285864 C519.438775,65.3927245 519.313984,65.8879744 519.064402,66.3124743 C518.81482,66.7369743 518.477699,67.0479018 518.051174,67.2471189 C517.626513,67.4444741 517.00442,67.5431518 516.183035,67.5431518 M518.645328,70.1050461 C518.390159,69.8015659 518.015786,69.5036712 517.524072,69.2095002 C518.734731,69.0046976 519.656694,68.5243424 520.289961,67.7702965 C520.923229,67.0162505 521.241725,66.0313362 521.241725,64.8136917 C521.241725,63.89208 521.05547,63.080317 520.681097,62.3821263 C520.306724,61.6820738 519.828048,61.1812384 519.24507,60.8814818 C518.662091,60.5817253 517.758754,60.4309161 516.535058,60.4309161 L510.673608,60.4309161 L510.673608,76.5451568 L512.420681,76.5451568 L512.420681,69.3900988 L514.443412,69.3900988 C515.028253,69.3900988 515.484579,69.470158 515.810525,69.6265527 C516.136472,69.7848093 516.473593,70.0920132 516.82189,70.5463026 C517.168325,71.000592 517.684252,71.8849668 518.367808,73.1957034 L520.131644,76.5451568 L522.329455,76.5451568 L520.021754,72.1605194 C519.62503,71.4064735 519.166843,70.7213157 518.645328,70.1050461" id="Fill-133" fill="#604C3F" mask="url(#mask-8)"></path>
                <path d="M531.983804,69.9285435 L533.45522,65.2013272 C533.768128,64.1847615 534.008398,63.1570249 534.179752,62.1255645 C534.377183,62.9820117 534.688229,64.0953931 535.112891,65.4657087 L536.487454,69.9285435 L531.983804,69.9285435 Z M533.289453,60.4312885 L528.191649,76.5455292 L530.035575,76.5455292 L531.473465,71.6656419 L537.033181,71.6656419 L538.571649,76.5455292 L540.573891,76.5455292 L535.159454,60.4312885 L533.289453,60.4312885 Z" id="Fill-134" fill="#604C3F" mask="url(#mask-8)"></path>
                <path d="M553.08763,67.5431518 L549.327138,67.5431518 L549.327138,62.2126987 L553.506704,62.2126987 C554.445429,62.2126987 555.151336,62.4454289 555.62815,62.9108894 C556.104963,63.3763498 556.343369,64.0149616 556.343369,64.8285864 C556.343369,65.3927245 556.218578,65.8879744 555.968997,66.3124743 C555.719415,66.7369743 555.382293,67.0479018 554.957631,67.2471189 C554.531107,67.4444741 553.909015,67.5431518 553.08763,67.5431518 M555.551785,70.1050461 C555.294753,69.8015659 554.92038,69.5036712 554.428667,69.2095002 C555.639325,69.0046976 556.561288,68.5243424 557.196418,67.7702965 C557.829685,67.0162505 558.146319,66.0313362 558.146319,64.8136917 C558.146319,63.89208 557.960064,63.080317 557.585691,62.3821263 C557.211318,61.6820738 556.734505,61.1812384 556.151527,60.8814818 C555.568548,60.5817253 554.665211,60.4309161 553.439652,60.4309161 L547.578202,60.4309161 L547.578202,76.5451568 L549.327138,76.5451568 L549.327138,69.3900988 L551.348006,69.3900988 C551.93471,69.3900988 552.389173,69.470158 552.715119,69.6265527 C553.042928,69.7848093 553.378188,70.0920132 553.726485,70.5463026 C554.074782,71.000592 554.590709,71.8849668 555.272402,73.1957034 L557.036239,76.5451568 L559.234049,76.5451568 L556.926348,72.1605194 C556.529625,71.4064735 556.071437,70.7213157 555.551785,70.1050461" id="Fill-135" fill="#604C3F" mask="url(#mask-8)"></path>
                <path d="M572.384221,65.1739581 C571.810555,66.2296224 571.330017,67.1810235 570.940744,68.0244379 C570.551471,67.1661288 570.100733,66.25755 569.588531,65.2949778 L566.990272,60.431847 L564.855788,60.431847 L569.946141,69.7205757 L569.946141,76.5460877 L571.695077,76.5460877 L571.695077,69.7205757 L576.973548,60.431847 L574.950817,60.431847 L572.384221,65.1739581 Z" id="Fill-136" fill="#604C3F" mask="url(#mask-8)"></path>
                <polygon id="Fill-137" fill="#604C3F" mask="url(#mask-8)" points="380.614249 6.48144364 380.614249 9.87558123 409.314304 9.87558123 409.314304 6.48144364 396.661992 6.48144364 396.661992 1.08396429 393.266561 1.08396429 393.266561 6.48144364"></polygon>
                <polygon id="Fill-138" fill="#604C3F" mask="url(#mask-8)" points="388.144544 38.1109705 391.590264 38.1109705 387.699395 15.5473099 384.253674 15.5473099"></polygon>
                <polygon id="Fill-139" fill="#604C3F" mask="url(#mask-8)" points="398.389322 42.7365303 405.666311 15.5480546 402.153539 15.5480546 394.874688 42.7365303 380.614994 42.7365303 380.614994 45.9612403 409.313186 45.9612403 409.313186 42.7365303"></polygon>
                <polygon id="Fill-140" fill="#604C3F" mask="url(#mask-8)" points="324.027329 7.11335275 324.027329 10.5074903 354.394367 10.5074903 354.394367 7.11335275 340.903907 7.11335275 340.903907 1.08284719 337.508476 1.08284719 337.508476 7.11335275"></polygon>
                <polygon id="Fill-141" fill="#604C3F" mask="url(#mask-8)" points="340.903162 38.9346494 340.903162 21.8075667 351.491767 21.8075667 351.789775 21.8075667 351.789775 35.5405118 348.439045 35.5405118 348.439045 38.9346494 351.789775 38.9346494 351.789775 38.9346494 355.185207 38.9346494 355.185207 18.415291 351.491767 18.415291 340.903162 18.415291 340.903162 11.3142264 337.507731 11.3142264 337.507731 18.415291 332.13427 18.415291 323.227549 18.415291 323.227549 38.9346494 326.62298 38.9346494 326.62298 21.8075667 332.13427 21.8075667 337.507731 21.8075667 337.507731 38.9346494 337.507731 45.8867666 337.507731 45.9612403 340.903162 45.9612403 340.903162 45.8867666"></polygon>
                <polygon id="Fill-142" fill="#604C3F" mask="url(#mask-8)" points="222.466496 5.75774574 222.453458 5.76519311 222.453458 11.7026066 226.687038 17.816895 226.687038 22.7340192 222.453458 28.8483076 222.453458 30.985702 222.453458 34.7838593 222.466496 34.7931685 226.687038 28.6974984 226.687038 28.7943142 219.722958 45.9604955 223.386597 45.9604955 230.082469 29.4534062 230.082469 21.8682628 230.082469 21.8664009 230.082469 1.082661 229.22197 1.082661 226.687038 1.082661 226.687038 11.8515539"></polygon>
                <polygon id="Fill-143" fill="#604C3F" mask="url(#mask-8)" points="211.122999 11.3942856 211.122999 14.7884232 214.699098 14.7884232 210.242012 30.9380389 213.762235 30.9380389 214.939367 26.676283 214.939367 45.9612403 218.334798 45.9612403 218.334798 26.3169475 218.807887 27.6072039 222.424961 27.6072039 220.318416 21.8708693 218.334798 16.4715281 218.334798 14.7884232 220.318416 14.7884232 221.206853 14.7884232 221.206853 11.3942856 220.318416 11.3942856 218.334798 11.3942856 218.334798 1.08340574 215.615473 1.08340574 214.939367 1.08340574 214.939367 11.3942856"></polygon>
                <polygon id="Fill-144" fill="#604C3F" mask="url(#mask-8)" points="243.737579 45.9610541 243.737579 42.6116007 238.036309 42.6116007 238.036309 28.0594453 242.96462 35.1791283 242.96462 29.215649 238.036309 22.095966 238.036309 18.4542035 242.96462 11.3363823 242.96462 5.37290304 238.036309 12.4907242 238.036309 1.08321955 236.728798 1.08321955 234.640878 1.08321955 234.640878 45.9610541"></polygon>
                <polygon id="Fill-145" fill="#604C3F" mask="url(#mask-8)" points="566.752052 7.28501456 574.587806 7.28501456 574.587806 10.762935 577.983237 10.762935 577.983237 3.89087698 572.367644 3.89087698 572.367644 1.08321955 568.972213 1.08321955 568.972213 3.89087698 563.358483 3.89087698 563.358483 10.762935 566.752052 10.762935"></polygon>
                <path d="M566.752052,42.5672889 L574.606431,42.5672889 L574.606431,33.7496061 L566.752052,33.7496061 L566.752052,42.5672889 Z M566.752052,23.0924237 L574.606431,23.0924237 L574.606431,17.2797537 L566.752052,17.2797537 L566.752052,23.0924237 Z M578.001863,26.4865613 L578.001863,13.8837542 L563.358483,13.8837542 L563.358483,15.7418723 L563.358483,26.4865613 L563.358483,30.3536067 L563.358483,44.0679334 L563.358483,45.9614265 L565.055268,45.9614265 L566.752052,45.9614265 L574.606431,45.9614265 L576.303216,45.9614265 L578.001863,45.9614265 L578.001863,30.3536067 L566.752052,30.3536067 L566.752052,26.4865613 L578.001863,26.4865613 Z" id="Fill-146" fill="#604C3F" mask="url(#mask-8)"></path>
                <polygon id="Fill-147" fill="#604C3F" mask="url(#mask-8)" points="554.606354 5.66502602 559.99844 10.7627488 560.495742 11.2337948 560.495742 6.56057192 554.699482 1.08303337 554.690169 1.08303337 548.154476 6.79516399 548.154476 11.3045448 548.772843 10.7627488"></polygon>
                <path d="M551.057635,23.9788466 L557.833597,23.9788466 L557.833597,27.3357474 L551.059497,27.3357474 L551.057635,23.9788466 Z M551.05391,17.8608345 L551.05391,17.278078 L557.833597,17.278078 L557.833597,20.584709 L551.055772,20.584709 L551.05391,17.8608345 Z M557.844772,37.9556929 L558.399812,41.156199 L551.070673,42.1020146 L551.06136,30.7298849 L561.229028,30.7298849 L561.229028,13.8839404 L556.146125,13.8839404 L556.146125,13.1857497 L556.146125,10.7634936 L556.146125,10.4562897 L552.750694,10.4562897 L552.750694,10.7634936 L552.750694,13.1857497 L552.750694,13.8839404 L547.658478,13.8839404 L547.658478,30.7298849 L547.667791,30.7298849 L547.678966,45.9616126 L547.688279,45.9616126 L558.980929,44.5037905 L559.234235,45.9616126 L562.679956,45.9616126 L561.189915,37.3766601 L557.844772,37.9556929 Z" id="Fill-148" fill="#604C3F" mask="url(#mask-8)"></path>
                <path d="M508.448604,15.3862606 L516.62893,15.3862606 L516.62893,12.8820834 L508.448604,12.8820834 L508.448604,15.3862606 Z M508.448604,9.48794577 L516.62893,9.48794577 L516.62893,6.98376856 L508.448604,6.98376856 L508.448604,9.48794577 Z M494.088333,3.58963097 L494.088333,6.98376856 L505.055035,6.98376856 L505.055035,9.48794577 L490.817692,9.48794577 L490.817692,12.8820834 L505.055035,12.8820834 L505.055035,15.3862606 L494.088333,15.3862606 L494.088333,18.7803981 L505.055035,18.7803981 L505.055035,21.0965293 L500.122999,21.0965293 L494.088333,21.0965293 L494.088333,24.4906669 L500.122999,24.4906669 L505.055035,24.4906669 L505.055035,26.38416 L500.122999,26.38416 L494.088333,26.38416 L494.088333,29.7764358 L500.122999,29.7764358 L514.200163,29.7764358 L519.236502,29.7764358 L519.236502,26.38416 L514.200163,26.38416 L508.448604,26.38416 L508.448604,24.4906669 L514.200163,24.4906669 L519.236502,24.4906669 L519.236502,21.0965293 L514.200163,21.0965293 L508.448604,21.0965293 L508.448604,18.7803981 L520.024361,18.7803981 L520.024361,12.8820834 L522.685947,12.8820834 L522.685947,9.48794577 L520.024361,9.48794577 L520.024361,3.58963097 L508.448604,3.58963097 L508.448604,1.08359192 L505.055035,1.08359192 L505.055035,3.58963097 L494.088333,3.58963097 Z" id="Fill-149" fill="#604C3F" mask="url(#mask-8)"></path>
                <path d="M516.64234,36.9908865 L514.25455,36.9908865 L497.944187,36.9908865 L496.686964,36.9908865 L496.686964,34.7734329 L516.64234,34.7734329 L516.64234,36.9908865 Z M516.64234,42.5671027 L514.25455,42.5671027 L497.944187,42.5671027 L496.686964,42.5671027 L496.686964,40.3850241 L497.944187,40.3850241 L514.25455,40.3850241 L516.64234,40.3850241 L516.64234,42.5671027 Z M493.291533,31.3792954 L493.291533,45.9612403 L495.269563,45.9612403 L496.686964,45.9612403 L497.944187,45.9612403 L514.25455,45.9612403 L516.141314,45.9612403 L516.64234,45.9612403 L517.936814,45.9612403 L520.037772,45.9612403 L520.037772,31.3792954 L493.291533,31.3792954 Z" id="Fill-150" fill="#604C3F" mask="url(#mask-8)"></path>
                <path d="M443.872083,12.7610636 L458.33107,12.7610636 L458.33107,9.77094572 L443.872083,9.77094572 L443.872083,12.7610636 Z M440.478515,9.77094572 L440.478515,12.7610636 L440.476652,12.7610636 L440.476652,16.1552012 L449.405724,16.1552012 L449.405724,18.1026877 L440.476652,18.1026877 L440.476652,21.4968253 L461.726501,21.4968253 L461.726501,18.1026877 L452.799292,18.1026877 L452.799292,16.1552012 L461.726501,16.1552012 L461.726501,14.5726357 L461.726501,8.20886046 L461.726501,6.37866998 L440.476652,6.37866998 L440.476652,9.77094572 L440.478515,9.77094572 Z" id="Fill-151" fill="#604C3F" mask="url(#mask-8)"></path>
                <path d="M449.141241,32.6399484 L453.061912,32.6399484 L453.061912,31.0853105 L449.141241,31.0853105 L449.141241,32.6399484 Z M445.747673,36.0322242 L456.457343,36.0322242 L456.457343,27.6893111 L445.747673,27.6893111 L445.747673,36.0322242 Z" id="Fill-152" fill="#604C3F" mask="url(#mask-8)"></path>
                <path d="M438.563439,4.47679859 L463.640832,4.47679859 L463.640832,5.28669977 L463.640832,15.9680861 L463.640832,31.7323006 L463.640832,42.0785554 L463.640832,42.566358 L438.563439,42.566358 L438.563439,4.47679859 Z M467.036263,45.9604955 L467.036263,1.082661 L460.228638,1.082661 L435.168008,1.082661 L435.168008,45.9604955 L467.036263,45.9604955 Z" id="Fill-153" fill="#604C3F" mask="url(#mask-8)"></path>
                <path d="M443.873946,37.270349 L458.332933,37.270349 L458.332933,26.4530482 L443.873946,26.4530482 L443.873946,37.270349 Z M461.726501,25.2223707 L461.726501,23.0589106 L440.476652,23.0589106 L440.476652,26.4530482 L440.478515,26.4530482 L440.478515,37.270349 L440.476652,37.270349 L440.476652,40.6644866 L461.726501,40.6644866 L461.726501,38.2850528 L461.726501,25.2223707 Z" id="Fill-154" fill="#604C3F" mask="url(#mask-8)"></path>
                <polygon id="Fill-155" fill="#604C3F" mask="url(#mask-8)" points="293.982884 13.8669977 285.057537 13.8669977 285.057537 11.6588533 293.982884 11.6588533 293.982884 8.26471571 285.057537 8.26471571 285.057537 6.09567002 281.662106 6.09567002 281.662106 8.26471571 272.73676 8.26471571 272.73676 11.6588533 281.662106 11.6588533 281.662106 13.8669977 272.73676 13.8669977 272.73676 17.2611352 293.982884 17.2611352"></polygon>
                <path d="M276.132563,25.9335943 L290.589688,25.9335943 L290.589688,22.4929107 L276.132563,22.4929107 L276.132563,25.9335943 Z M281.662479,41.3552299 L285.056047,41.3552299 L285.056047,36.4381057 L293.983256,41.4911443 L293.983256,37.5887239 L290.984549,35.8925861 L293.810039,31.8840407 L289.656549,31.8840407 L288.015642,34.2113429 L285.056047,32.5375471 L285.056047,29.3277319 L293.983256,29.3277319 L293.983256,28.4582518 L293.983256,20.7967728 L293.983256,19.1006349 L272.737132,19.1006349 L272.737132,22.4929107 L272.737132,22.4929107 L272.737132,25.9335943 L272.737132,25.9335943 L272.737132,29.3277319 L280.993823,29.3277319 L272.737132,34.2727837 L272.737132,38.2291975 L281.662479,32.8838497 L281.662479,41.3552299 Z" id="Fill-156" fill="#604C3F" mask="url(#mask-8)"></path>
                <path d="M270.822802,7.15691985 L270.822802,7.15691985 L270.822802,4.47772951 L295.896469,4.47772951 L295.896469,7.15691985 L295.896469,33.7645009 L295.896469,42.0794863 L295.896469,42.4108942 L295.896469,42.5672889 L270.822802,42.5672889 L270.822802,42.4108942 L270.822802,40.8823221 L270.822802,7.15691985 Z M299.2919,45.9614265 L299.2919,1.08359192 L281.936646,1.08359192 L267.42737,1.08359192 L267.42737,45.9614265 L299.2919,45.9614265 Z" id="Fill-157" fill="#604C3F" mask="url(#mask-8)"></path>
            </g>
        </g>
    </g>
</svg>